<?xml version="1.0" encoding="utf-8"?>
<!-- Generator: Adobe Illustrator 28.1.0, SVG Export Plug-In . SVG Version: 6.00 Build 0)  -->
<svg version="1.1" id="Layer_1" xmlns="http://www.w3.org/2000/svg" xmlns:xlink="http://www.w3.org/1999/xlink" x="0px" y="0px"
	 viewBox="0 0 31.9 32" style="enable-background:new 0 0 31.9 32;" xml:space="preserve">
<style type="text/css">
	.st0{clip-path:url(#SVGID_00000110471556483624592820000017657980401652115585_);}
	.st1{fill:#80CCFF;}
	.st2{fill:#055F91;}
	.st3{fill:#FFFFFF;}
</style>
<g>
	<g>
		<defs>
			<rect id="SVGID_1_" x="1.6" y="0.5" width="28.7" height="31"/>
		</defs>
		<clipPath id="SVGID_00000177458633042109177650000009535678530206543034_">
			<use xlink:href="#SVGID_1_"  style="overflow:visible;"/>
		</clipPath>
		<g style="clip-path:url(#SVGID_00000177458633042109177650000009535678530206543034_);">
			<path class="st1" d="M17.4,22c0.1,0,10.1-8.9,9.8-14.8c-0.3-5.9-6-6.7-9.8-6.7c-3.8,0-9.6,0.8-9.8,6.7
				C7.3,13.2,17.3,22.1,17.4,22L17.4,22z"/>
			<path class="st2" d="M11.1,21.8c0.1,0,6.3-8.1,5.2-12.4C15.2,5,10.9,5.3,8,5.9c-2.9,0.6-7,2-6.4,6.4
				C2.3,16.8,11.1,21.9,11.1,21.8z"/>
			<path class="st2" d="M22.4,21.7c0,0,5.5-2.2,6.2-4.7c0.7-2.5-1.5-3.7-3.1-4.2c-1.6-0.6-4.1-1-5.1,1.4
				C19.5,16.6,22.4,21.7,22.4,21.7L22.4,21.7z"/>
			<path class="st2" d="M6.9,31.4H5.2l0.1-2.6c0,0-0.8,0.9-1.7,0.9c-1-0.1-1.4-0.9-1.3-2.2c0.1-1.2,0.2-2.3,0.2-2.3l1.4-0.1
				c0,0-0.3,2.8,0.6,2.7c0.5,0,0.7-0.7,0.8-1.3c0-0.6,0-1.3,0-1.3l1.5,0L6.9,31.4L6.9,31.4z"/>
			<path class="st2" d="M7.4,25.2l3.4,0l0,1.3H8.9l0,1l1.2,0v1.2l-1.2,0l0,1.1l2.1,0l0,1.6l-3.7,0L7.4,25.2L7.4,25.2z M8.9,23.4
				l0,1.5L7.5,25l0-1.6L8.9,23.4L8.9,23.4z M10.7,23.4l0,1.6l-1.5,0l0-1.6L10.7,23.4L10.7,23.4z"/>
			<path class="st2" d="M11.4,31.4l0.1-6.2l1.4,0c0,0,0,1.2,0,2.6l1.6-2.5l1.2,0.7L14,28.5l2,2.1l-1.1,0.9c0,0-1.2-1.3-1.9-2.1
				c0,1.1,0,2,0,2L11.4,31.4L11.4,31.4z"/>
			<path class="st2" d="M20.8,31.2l-1.4,0.1l-0.2-1.4c-0.3,0-0.7,0.1-1.1,0.1c-0.2,0.8-0.3,1.4-0.3,1.4l-1.4-0.2l1.7-5.9l1.6-0.1
				L20.8,31.2L20.8,31.2z M18.7,27.2c0,0-0.1,0.9-0.3,1.6l0.6-0.1L18.7,27.2z"/>
			<path class="st2" d="M24.8,26.1c0.4,1.4-1.1,1.9-1.1,1.9s0.9,0.2,1.3,0.9c0.4,0.7-0.2,2.3-1.6,2.5c-1.4,0.1-2.2-0.5-2.2-0.5
				l0-5.3c0,0,0.6-0.3,1.3-0.4C23.4,25.1,24.6,25.3,24.8,26.1z M22.7,26.4l0,0.9c0,0,0.7-0.1,0.6-0.6C23.3,26.3,22.7,26.4,22.7,26.4
				z M22.8,29l0,1c0,0,0.6,0,0.7-0.5C23.5,28.9,22.8,29,22.8,29z"/>
			<path class="st2" d="M27.7,31.4c-3.2-0.1-2.8-6.2,0.3-6.2S31,31.5,27.7,31.4z M27.9,26.9c-0.9,0.2-1,2.6,0,2.5
				C28.9,29.3,28.8,26.7,27.9,26.9z"/>
			<path class="st3" d="M9.5,20.8c0-0.2,0-0.3,0-0.5c0-0.1-0.1-0.3-0.1-0.4c0-0.2-0.1-0.3-0.2-0.4c-0.4-0.4-0.7-0.7-1.1-1.1
				c-0.2-0.2-0.4-0.5-0.6-0.8c-0.2-0.2-0.2-0.4-0.1-0.6c0.1-0.2,0.1-0.5,0.2-0.7c0.1-0.2,0.1-0.4,0.2-0.7c0.1-0.3,0.2-0.6,0.3-0.9
				c0.1-0.3,0.2-0.5,0.3-0.8c0.1-0.2,0.1-0.4,0.1-0.6c0.2-0.2-0.1-0.4,0-0.6c-0.2-0.3,0-0.6-0.1-0.9c-0.1-0.1-0.1-0.2-0.2-0.3
				C8,11.3,8,11,8.2,10.9c0.1-0.1,0.1-0.2,0.2-0.3c0,0,0-0.1,0.1-0.2c-0.1,0-0.1,0-0.1,0C8,10.3,7.6,10,7.2,9.8
				C6.9,9.6,6.9,9.3,7.3,9.1C7.5,9,7.8,9,8.1,8.9c0.3-0.1,0.5-0.1,0.8-0.2C8.6,7.8,8.8,7.3,9.6,6.9c0.6-0.3,1.4-0.1,1.7,0.5
				c0.3,0.4,0.2,0.8,0.1,1.3c-0.1,0.5-0.6,0.6-0.9,0.8v0.4c0.1,0,0.1,0,0.2,0c0.3,0.2,0.6,0.3,0.9,0.4c0.1,0,0.1,0.1,0.1,0.1
				c0,0.3,0.3,0.5,0.6,0.6c0.3,0.2,0.4,0.4,0.7,0.6c0,0,0,0.2,0,0.2c-0.1,0.2-0.2,0.3-0.3,0.4c-0.4,0.5-0.9,0.8-1.4,1.1
				c0,0-0.1,0-0.1,0c0.3,0.3,0.4,0.6,0.4,0.9c0,0.2,0,0.4,0,0.6c0,0.2-0.1,0.4-0.2,0.5c0,0.5-0.2,0.9-0.4,1.4c0,0.1,0,0.2-0.1,0.2
				c-0.1,0.2-0.1,0.4-0.1,0.5c0.1,0.3,0.1,0.5,0,0.8c0,0,0,0.1,0,0.1c0,0.4-0.1,0.7-0.3,1c-0.1,0.2-0.1,0.3-0.1,0.5
				c0,0.4,0,0.8,0,1.2c0,0.4-0.1,0.5-0.5,0.5c-0.1,0-0.2,0-0.3,0c-0.1,0-0.1-0.1-0.2-0.1c0.1-0.2,0.3-0.4,0.3-0.7
				c-0.2,0-0.3,0.1-0.6,0.1C9.2,21.1,9.2,21,9.2,21C9.3,20.9,9.4,20.9,9.5,20.8L9.5,20.8z M9.7,19.4C9.7,19.4,9.7,19.4,9.7,19.4
				c0.1-0.3,0-0.5,0.1-0.8c0-0.3,0.1-0.5,0.1-0.8c0-0.5,0-1-0.1-1.6c-0.1-0.4-0.1-0.9-0.1-1.3c-0.4,0.7-0.9,1.3-1.3,2
				c0.3,0.1,0.5,0.4,0.7,0.7C9.2,18.3,9.4,18.9,9.7,19.4z M10.8,13.1c0.2,0,0.3,0,0.4-0.2c0-0.1,0.1-0.2,0.2-0.3
				c0.2-0.2,0.3-0.4,0.5-0.6c-0.1-0.2-0.3-0.3-0.4-0.4c-0.1-0.1-0.3-0.2-0.5-0.3c-0.3,0.5-0.6,0.9-0.9,1.3
				C10.4,12.7,10.6,12.9,10.8,13.1L10.8,13.1z M8.2,9.5c0.3,0.2,0.5,0.3,0.7,0.3c0.1,0,0.3,0.1,0.4,0.1c0.2,0.1,0.3,0,0.4-0.1
				C9.3,9.8,9.3,9.8,9,9.1C8.7,9.3,8.5,9.4,8.2,9.5L8.2,9.5z"/>
			<path class="st3" d="M27,15.4l-4-1.6c-0.2-0.1-0.5,0-0.6,0.3l-0.9,2.3c-0.1,0.2,0,0.5,0.3,0.6l4,1.6c0.2,0.1,0.5,0,0.6-0.3
				l0.9-2.3C27.4,15.7,27.3,15.5,27,15.4z M24.4,17.4c-0.6-0.3-0.9-1-0.7-1.6c0.3-0.6,1-0.9,1.6-0.7c0.6,0.3,0.9,1,0.7,1.6
				C25.7,17.3,25,17.6,24.4,17.4L24.4,17.4z"/>
			<path class="st3" d="M25.1,15.6c-0.4-0.1-0.8,0-0.9,0.4c-0.1,0.4,0,0.8,0.4,0.9c0.4,0.1,0.8,0,0.9-0.4
				C25.7,16.2,25.5,15.7,25.1,15.6z"/>
			<path class="st2" d="M22.1,3.1c0.2,0.1,0.4,0.2,0.5,0.3c0.3,0.2,0.5,0.4,0.5,0.9c-0.2,2.1-0.4,4.2-0.5,6.3c0,0.4-0.2,0.6-0.5,0.8
				c-1.2,0.9-3.1,0.8-4.4-0.1c-0.2-0.2-0.4-0.4-0.4-0.7c-0.2-2.1-0.3-4.2-0.5-6.3c-0.1-0.7,0.1-0.9,0.7-1.1c1.1-0.4,2.2-0.4,3.3-0.3
				c0.4,0,0.6,0,0.7-0.4c0.2-0.3,0.3-0.7,0.5-1c0.1-0.1,0.2-0.3,0.4-0.3c0.5-0.2,1.1-0.3,1.7-0.4c0.1,0,0.1,0,0.2,0
				c0.2,0,0.4,0,0.4,0.2c0,0.1-0.1,0.3-0.2,0.3c-0.1,0.1-0.2,0.1-0.3,0.1c-0.2,0-0.3,0.1-0.5,0.1C23,1.8,22.4,2.3,22.1,3.1L22.1,3.1
				z M21.8,6.2c-0.6,0.7-3.1,0.7-3.7,0c0.2-0.3,0.5-0.3,0.7-0.4c0.3-0.1,0.5-0.1,0.8-0.1c0.2,0,0.4-0.1,0.3-0.4
				c-0.8-0.1-1.5-0.2-2.3-0.3c0,0.4,0.1,0.7,0.1,1.1c0,0.4,0.2,0.6,0.5,0.7c1.2,0.4,2.4,0.4,3.6,0c0.2-0.1,0.3-0.2,0.4-0.3
				c0.1-0.5,0.1-1,0.1-1.5c-0.5,0.1-0.9,0.2-1.3,0.3c-0.2,0.1-0.3,0.2-0.3,0.5C21.1,5.9,21.6,5.7,21.8,6.2L21.8,6.2z M21.2,3.4
				c-1.1-0.1-2.1-0.2-3,0.2c-0.2,0.1-0.5,0.2-0.5,0.5c0,0.3,0.3,0.4,0.5,0.5c0.7,0.3,1.3,0.3,2,0.3c0.1,0,0.2-0.1,0.3-0.2
				C20.7,4.3,20.9,3.9,21.2,3.4L21.2,3.4z M21.2,4.6c0.5,0,0.8-0.1,1-0.3C22.3,4.2,22.3,4,22.3,4c-0.1-0.1-0.2-0.3-0.4-0.3
				c-0.1,0-0.2,0.1-0.3,0.2C21.5,4,21.4,4.3,21.2,4.6L21.2,4.6z"/>
		</g>
	</g>
</g>
</svg>
